#N canvas 108 232 517 430 12;
#X obj 106 62 tgl 15 0 empty empty start -5 -5 0 10 #fcfcfc #000000
#000000 0 1;
#X obj 272 238 dac~;
#X obj 186 147 shep, f 18;
#X text 163 44 dropoff pitch interval incr;
#X msg 272 62 120;
#X obj 229 6 bng 15 250 50 0 empty empty empty 17 7 0 10 #fcfcfc #000000
#000000;
#X obj 303 192 *~ 0.5;
#X obj 231 191 *~ 0.5;
#X msg 169 64 30;
#X msg 333 63 2;
#X msg 221 63 60;
#X connect 0 0 2 0;
#X connect 2 0 7 0;
#X connect 2 1 6 0;
#X connect 4 0 2 3;
#X connect 5 0 8 0;
#X connect 5 0 10 0;
#X connect 5 0 4 0;
#X connect 5 0 9 0;
#X connect 5 0 0 0;
#X connect 6 0 1 1;
#X connect 7 0 1 0;
#X connect 8 0 2 1;
#X connect 9 0 2 4;
#X connect 10 0 2 2;
