#N canvas 893 139 685 493 12;
#X obj 152 285 pack 0 50;
#X obj 94 239 pack 0 50;
#X obj 25 321 inlet~;
#X obj 94 265 line~;
#X obj 152 311 line~;
#X obj 95 329 *~;
#X obj 25 347 +~;
#X obj 25 373 outlet~;
#X obj 94 187 expr $f1 * $f2 + $f3;
#X obj 293 86 expr ($i1% 10000) * 0.0002 - 1;
#X obj 293 60 + \$1;
#X obj 372 188 expr exp(-$f1*$f1*$f2);
#X obj 94 213 mtof;
#X obj 94 291 osc~;
#X text 60 31 our local phase =;
#X text 57 49 overall phase + our;
#X text 56 68 relative phase;
#X text 53 87 (modulo 10000);
#X text 55 104 normalized from -1 to 1;
#X text 345 59 \$1: relative phase;
#X text 5 133 pitch is center pitch;
#X text 12 148 + interval*phase;
#X text 369 217 amplitude is Gaussian \, with;
#X text 317 238 peak width controlled by "dropoff";
#X obj 281 188 r \$2-pitch;
#X obj 181 162 r \$2-interval;
#X obj 477 160 r \$2-dropoff;
#X obj 293 34 r \$2-phase;
#X connect 0 0 4 0;
#X connect 1 0 3 0;
#X connect 2 0 6 0;
#X connect 3 0 13 0;
#X connect 4 0 5 1;
#X connect 5 0 6 1;
#X connect 6 0 7 0;
#X connect 8 0 12 0;
#X connect 9 0 8 0;
#X connect 9 0 11 0;
#X connect 10 0 9 0;
#X connect 11 0 0 0;
#X connect 12 0 1 0;
#X connect 13 0 5 0;
#X connect 24 0 8 2;
#X connect 25 0 8 1;
#X connect 26 0 11 1;
#X connect 27 0 10 0;
