#N canvas 696 185 517 430 12;
#X obj 272 238 dac~;
#X obj 186 147 shep, f 18;
#X text 163 44 dropoff pitch interval incr;
#X msg 272 62 120;
#X obj 229 6 bng 15 250 50 0 empty empty empty 17 7 0 10 #fcfcfc #000000
#000000;
#X obj 231 191 *~ 0.25;
#X obj 303 192 *~ 0.25;
#X msg 169 64 3;
#X msg 333 63 2;
#X msg 221 63 60;
#X connect 1 0 5 0;
#X connect 1 1 6 0;
#X connect 3 0 1 3;
#X connect 4 0 9 0;
#X connect 4 0 3 0;
#X connect 4 0 8 0;
#X connect 4 0 1 0;
#X connect 4 0 7 0;
#X connect 5 0 0 0;
#X connect 6 0 0 1;
#X connect 7 0 1 1;
#X connect 8 0 1 4;
#X connect 9 0 1 2;
