#N canvas 525 94 1415 726 10;
#X obj 304 186 r notesIn-\$1;
#X obj 304 491 s notesOut-\$1;
#X obj 25 186 inlet~ inL-\$1;
#X obj 135 186 inlet~ inR-\$1;
#X obj 27 491 outlet~ outL-\$1;
#X obj 136 491 outlet~ outR-\$1;
#X obj 83 246 r auxIn-\$1;
#X obj 498 209 r expIn-\$1;
#X obj 498 234 r fsIn-\$1;
#X obj 398 186 r ctrlIn-\$1;
#X obj 398 491 s ctrlOut-\$1;
#X obj 96 369 shep, f 23;
#X obj 101 292 r doff-\$1;
#X obj 164 293 r pitch-\$1;
#X obj 234 293 r ivl-\$1;
#X obj 295 293 r incr-\$1;
#X connect 0 0 1 0;
#X connect 6 0 11 0;
#X connect 9 0 10 0;
#X connect 11 0 4 0;
#X connect 11 1 5 0;
#X connect 12 0 11 1;
#X connect 13 0 11 2;
#X connect 14 0 11 3;
#X connect 15 0 11 4;
